HIERARCHY
ROOT hip
{
  OFFSET 0 0 0
  CHANNELS 6 Xposition Yposition Zposition Zrotation Yrotation Xrotation
  JOINT abdomen
  {
    OFFSET 0 20.6881 -0.73152
    CHANNELS 3 Zrotation Xrotation Yrotation
    JOINT chest
    {
      OFFSET 0 11.7043 -0.48768
      CHANNELS 3 Zrotation Xrotation Yrotation
      JOINT neck
      {
        OFFSET 0 22.1894 -2.19456
        CHANNELS 3 Zrotation Xrotation Yrotation
        JOINT head
        {
          OFFSET -0.24384 7.07133 1.2192
          CHANNELS 3 Zrotation Xrotation Yrotation
          JOINT leftEye
          {
            OFFSET 4.14528 8.04674 8.04672
            CHANNELS 3 Zrotation Xrotation Yrotation
            End Site
            {
              OFFSET 1 0 0
            }
          }
          JOINT rightEye
          {
            OFFSET -3.6576 8.04674 8.04672
            CHANNELS 3 Zrotation Xrotation Yrotation
            End Site
            {
              OFFSET 1 0 0
            }
          }
        }
      }
      JOINT rCollar
      {
        OFFSET -2.68224 19.2634 -4.8768
        CHANNELS 3 Zrotation Xrotation Yrotation
        JOINT rShldr
        {
          OFFSET -8.77824 -1.95073 1.46304
          CHANNELS 3 Zrotation Xrotation Yrotation
          JOINT rForeArm
          {
            OFFSET -28.1742 -1.7115 0.48768
            CHANNELS 3 Zrotation Xrotation Yrotation
            JOINT rHand
            {
              OFFSET -22.5879 0.773209 7.07136
              CHANNELS 3 Zrotation Xrotation Yrotation
              JOINT rThumb1
              {
                OFFSET -1.2192 -0.487915 3.41376
                CHANNELS 3 Zrotation Xrotation Yrotation
                JOINT rThumb2
                {
                  OFFSET -3.37035 -0.52449 3.41376
                  CHANNELS 3 Zrotation Xrotation Yrotation
                  End Site
                  {
                    OFFSET -1.78271 -1.18214 1.43049
                  }
                }
              }
              JOINT rIndex1
              {
                OFFSET -7.75947 0.938293 5.60832
                CHANNELS 3 Zrotation Xrotation Yrotation
                JOINT rIndex2
                {
                  OFFSET -2.54057 -0.884171 1.56538
                  CHANNELS 3 Zrotation Xrotation Yrotation
                  End Site
                  {
                    OFFSET -1.62519 -0.234802 1.16502
                  }
                }
              }
              JOINT rMid1
              {
                OFFSET -8.24714 1.18213 3.41376
                CHANNELS 3 Zrotation Xrotation Yrotation
                JOINT rMid2
                {
                  OFFSET -3.10165 -0.590103 1.0647
                  CHANNELS 3 Zrotation Xrotation Yrotation
                  End Site
                  {
                    OFFSET -2.48547 -0.328903 0.83742
                  }
                }
              }
              JOINT rRing1
              {
                OFFSET -8.82822 0.546677 1.51678
                CHANNELS 3 Zrotation Xrotation Yrotation
                JOINT rRing2
                {
                  OFFSET -2.60934 -0.819778 -0.0198488
                  CHANNELS 3 Zrotation Xrotation Yrotation
                  End Site
                  {
                    OFFSET -2.33842 -0.294052 0.168128
                  }
                }
              }
              JOINT rPinky1
              {
                OFFSET -8.27202 -0.0477905 -0.4584
                CHANNELS 3 Zrotation Xrotation Yrotation
                JOINT rPinky2
                {
                  OFFSET -1.82734 -0.647385 -0.700984
                  CHANNELS 3 Zrotation Xrotation Yrotation
                  End Site
                  {
                    OFFSET -1.69225 -0.51767 -0.607171
                  }
                }
              }
            }
          }
        }
      }
      JOINT lCollar
      {
        OFFSET 2.68224 19.2634 -4.8768
        CHANNELS 3 Zrotation Xrotation Yrotation
        JOINT lShldr
        {
          OFFSET 8.77824 -1.95073 1.46304
          CHANNELS 3 Zrotation Xrotation Yrotation
          JOINT lForeArm
          {
            OFFSET 28.1742 -1.7115 0.48768
            CHANNELS 3 Zrotation Xrotation Yrotation
            JOINT lHand
            {
              OFFSET 22.5879 0.773209 7.07136
              CHANNELS 3 Zrotation Xrotation Yrotation
              JOINT lThumb1
              {
                OFFSET 1.2192 -0.487915 3.41376
                CHANNELS 3 Zrotation Xrotation Yrotation
                JOINT lThumb2
                {
                  OFFSET 3.37035 -0.52449 3.41376
                  CHANNELS 3 Zrotation Xrotation Yrotation
                  End Site
                  {
                    OFFSET 1.78271 -1.18214 1.43049
                  }
                }
              }
              JOINT lIndex1
              {
                OFFSET 7.75947 0.938293 5.60832
                CHANNELS 3 Zrotation Xrotation Yrotation
                JOINT lIndex2
                {
                  OFFSET 2.54057 -0.884171 1.56538
                  CHANNELS 3 Zrotation Xrotation Yrotation
                  End Site
                  {
                    OFFSET 1.62519 -0.234802 1.16502
                  }
                }
              }
              JOINT lMid1
              {
                OFFSET 8.24714 1.18213 3.41376
                CHANNELS 3 Zrotation Xrotation Yrotation
                JOINT lMid2
                {
                  OFFSET 3.10165 -0.590103 1.0647
                  CHANNELS 3 Zrotation Xrotation Yrotation
                  End Site
                  {
                    OFFSET 2.48547 -0.328903 0.83742
                  }
                }
              }
              JOINT lRing1
              {
                OFFSET 8.82822 0.546677 1.51678
                CHANNELS 3 Zrotation Xrotation Yrotation
                JOINT lRing2
                {
                  OFFSET 2.60934 -0.819778 -0.0198488
                  CHANNELS 3 Zrotation Xrotation Yrotation
                  End Site
                  {
                    OFFSET 2.33842 -0.294052 0.168128
                  }
                }
              }
              JOINT lPinky1
              {
                OFFSET 8.27202 -0.0477905 -0.4584
                CHANNELS 3 Zrotation Xrotation Yrotation
                JOINT lPinky2
                {
                  OFFSET 1.82734 -0.647385 -0.700984
                  CHANNELS 3 Zrotation Xrotation Yrotation
                  End Site
                  {
                    OFFSET 1.69225 -0.51767 -0.607171
                  }
                }
              }
            }
          }
        }
      }
    }
  }
  JOINT rButtock
  {
    OFFSET -8.77824 4.35084 1.2192
    CHANNELS 3 Zrotation Xrotation Yrotation
    JOINT rThigh
    {
      OFFSET 0 -1.70687 -2.19456
      CHANNELS 3 Zrotation Xrotation Yrotation
      JOINT rShin
      {
        OFFSET 0 -36.8199 0.73152
        CHANNELS 3 Zrotation Xrotation Yrotation
        JOINT rFoot
        {
          OFFSET 0.73152 -45.1104 -5.12064
          CHANNELS 3 Zrotation Xrotation Yrotation
          End Site
          {
            OFFSET -1.1221 -3.69964 12.103
          }
        }
      }
    }
  }
  JOINT lButtock
  {
    OFFSET 8.77824 4.35084 1.2192
    CHANNELS 3 Zrotation Xrotation Yrotation
    JOINT lThigh
    {
      OFFSET 0 -1.70687 -2.19456
      CHANNELS 3 Zrotation Xrotation Yrotation
      JOINT lShin
      {
        OFFSET 0 -36.8199 0.73152
        CHANNELS 3 Zrotation Xrotation Yrotation
        JOINT lFoot
        {
          OFFSET -0.73152 -45.1104 -5.12064
          CHANNELS 3 Zrotation Xrotation Yrotation
          End Site
          {
            OFFSET 1.1221 -3.69964 12.103
          }
        }
      }
    }
  }
}
MOTION
Frames:	9
Frame Time:	0.00833333
84.216 76.1449 -16.8522 -64.2837 99.7516 -66.2783 -19.0966 19.4029 2.685 1.19525 -4.234 -0.289987 -0.548108 -14.4696 -1.07175 4.98617 -7.89889 -1.41197 -0.0 0.0 0.0 -0.0 0.0 0.0 8.24358e-15 -9.67879e-14 5.42504e-15 98.326 47.8948 -31.1652 -28.3323 -38.3923 80.9227 -0.411888 -17.9255 -2.606 1.0724e-09 6.29852e-10 4.19665e-09 1.79046e-09 1.10255e-09 7.26958e-09 1.0724e-09 6.29855e-10 4.19665e-09 7.73091 5.47488 0.417314 1.0724e-09 6.29854e-10 4.19665e-09 2.90554 0.965183 0.102902 1.0724e-09 6.29852e-10 4.19665e-09 10.2786 0.731801 0.0259123 1.07239e-09 6.29852e-10 4.19667e-09 2.22167 -0.733487 -0.20892 8.19735e-15 -9.67677e-14 5.08997e-15 -76.9978 57.2228 15.6341 28.3671 -33.7684 -73.341 0.504115 -19.7369 2.89064 -1.04471e-09 1.65328e-09 -5.10612e-09 -1.72528e-09 2.88128e-09 -8.83733e-09 -1.04472e-09 1.65328e-09 -5.10612e-09 -7.73091 5.47488 -0.417314 -1.04471e-09 1.65328e-09 -5.10611e-09 -2.90554 0.965183 -0.102902 -1.04472e-09 1.65328e-09 -5.10611e-09 -10.2786 0.731801 -0.0259123 -1.04471e-09 1.65328e-09 -5.10611e-09 -2.22167 -0.733487 0.20892 -2.03217e-16 0.0 -3.88251e-19 -22.9366 -8.63337 -7.37669 31.582 67.4433 48.588 177.824 -0.379616 -118.081 2.03217e-16 0.0 3.88251e-19 -20.3409 -27.1248 -1.65352 0.651509 48.9875 -0.250602 0.806387 -17.6005 1.94683
86.8417 76.0673 -17.2608 -66.7471 100.975 -68.6529 -19.4605 19.691 1.96225 1.35469 -4.27054 -0.472478 -0.453817 -14.3774 -0.94438 5.12796 -8.17763 -1.17722 -0.0 0.0 0.0 -0.0 0.0 0.0 2.41242e-15 -3.33024e-13 2.18663e-15 99.2395 47.0399 -32.8495 -28.3713 -37.5015 79.5505 -0.417999 -18.0704 -2.62824 1.01459e-09 6.96685e-10 4.53269e-09 1.68639e-09 1.21987e-09 7.84876e-09 1.01459e-09 6.96685e-10 4.53268e-09 7.73091 5.47488 0.417314 1.01459e-09 6.96686e-10 4.53269e-09 2.90554 0.965183 0.102902 1.0146e-09 6.96685e-10 4.53269e-09 10.2786 0.731801 0.0259123 1.01459e-09 6.96685e-10 4.53271e-09 2.22167 -0.733487 -0.20892 2.35846e-15 -3.33005e-13 1.78906e-15 -72.9302 57.4249 10.0468 28.3714 -33.7818 -73.343 0.501317 -19.7075 2.88558 -1.09232e-09 1.58372e-09 -5.20514e-09 -1.80412e-09 2.76256e-09 -9.00846e-09 -1.09232e-09 1.58372e-09 -5.20515e-09 -7.73091 5.47488 -0.417314 -1.09232e-09 1.58372e-09 -5.20514e-09 -2.90554 0.965183 -0.102902 -1.09232e-09 1.58372e-09 -5.20513e-09 -10.2786 0.731801 -0.0259123 -1.09231e-09 1.58372e-09 -5.20513e-09 -2.22167 -0.733487 0.20892 -2.03217e-16 0.0 -3.88251e-19 -23.3899 -11.4074 -7.97585 10.0677 61.1962 42.7224 177.797 -2.3156 -136.823 2.03217e-16 0.0 3.88251e-19 -20.8586 -24.6351 -1.83893 0.597963 48.9443 -0.471711 0.927672 -19.5594 1.87442
89.5139 76.0709 -17.4705 -67.8226 101.564 -69.7609 -20.0926 19.8997 1.42196 1.68057 -4.34101 -0.610607 -0.491792 -14.3173 -0.869277 5.40429 -8.3656 -0.974009 -0.0 0.0 0.0 -0.0 0.0 0.0 9.5409e-14 1.1694e-12 6.33405e-14 100.424 46.1223 -34.881 -28.3795 -36.9264 78.6813 -0.443763 -18.6307 -2.71514 3.47408e-10 7.7256e-10 3.08789e-09 5.57608e-10 1.34737e-09 5.33924e-09 3.4741e-10 7.72561e-10 3.08788e-09 7.73091 5.47488 0.417314 3.47409e-10 7.72563e-10 3.08789e-09 2.90554 0.965183 0.102902 3.47414e-10 7.72562e-10 3.08789e-09 10.2786 0.731801 0.0259123 3.47407e-10 7.72563e-10 3.0879e-09 2.22167 -0.733487 -0.20892 9.52949e-14 1.16941e-12 6.29565e-14 -69.1999 57.1903 4.66849 28.3813 -33.9325 -73.5861 0.465892 -19.0639 2.78318 -1.02519e-09 3.70705e-10 -3.37716e-09 -1.71187e-09 6.60738e-10 -5.85001e-09 -1.0252e-09 3.70701e-10 -3.37716e-09 -7.73091 5.47488 -0.417314 -1.02519e-09 3.70703e-10 -3.37716e-09 -2.90554 0.965183 -0.102902 -1.0252e-09 3.70704e-10 -3.37716e-09 -10.2786 0.731801 -0.0259123 -1.02519e-09 3.70706e-10 -3.37715e-09 -2.22167 -0.733487 0.20892 -2.03217e-16 0.0 -3.88251e-19 -23.8675 -14.3121 -8.4319 4.02238 58.2259 39.1405 177.183 -3.14336 -145.258 2.03217e-16 0.0 3.88251e-19 -21.1935 -22.3016 -1.65975 0.557162 48.9172 -0.677596 1.00985 -21.4204 1.74662
92.1928 76.0844 -17.5284 -66.6098 101.591 -68.5545 -20.7427 20.0492 1.04265 2.08666 -4.44745 -0.704409 -0.609364 -14.2319 -0.828517 5.7613 -8.48556 -0.796677 -0.0 0.0 0.0 -0.0 0.0 0.0 2.52358e-13 3.78562e-12 1.65665e-13 101.759 45.1361 -37.1556 -28.3955 -36.5936 78.1064 -0.487139 -19.493 -2.85062 -7.28417e-10 9.05324e-10 5.30782e-10 -1.25953e-09 1.57013e-09 9.00083e-10 -7.28417e-10 9.05325e-10 5.30775e-10 7.73091 5.47488 0.417314 -7.28417e-10 9.05327e-10 5.30777e-10 2.90554 0.965183 0.102902 -7.28412e-10 9.05328e-10 5.30777e-10 10.2786 0.731801 0.0259123 -7.28419e-10 9.05329e-10 5.30789e-10 2.22167 -0.733487 -0.20892 2.52147e-13 3.78564e-12 1.65339e-13 -65.8595 56.6509 -0.392613 28.3952 -34.2105 -74.0487 0.413697 -18.0082 2.61793 -8.90298e-10 -1.62263e-09 -2.60846e-10 -1.52047e-09 -2.79427e-09 -4.65687e-10 -8.90302e-10 -1.62264e-09 -2.60843e-10 -7.73091 5.47488 -0.417314 -8.90297e-10 -1.62263e-09 -2.60844e-10 -2.90554 0.965183 -0.102902 -8.90302e-10 -1.62263e-09 -2.6084e-10 -10.2786 0.731801 -0.0259123 -8.90294e-10 -1.62263e-09 -2.60837e-10 -2.22167 -0.733487 0.20892 -2.03217e-16 0.0 -3.88251e-19 -24.1473 -17.3641 -8.76362 5.99471 56.9926 35.5184 176.587 -2.3575 -145.583 2.03217e-16 0.0 3.88251e-19 -21.2371 -19.9288 -1.19937 0.507168 48.7277 -0.859428 1.06609 -23.223 1.58116
95.0168 76.3079 -17.5607 -67.7253 101.656 -69.8454 -21.2918 20.0877 0.659765 2.51725 -4.56689 -0.794892 -0.707266 -14.1209 -0.776726 6.04643 -8.52945 -0.618129 -0.0 0.0 0.0 -0.0 0.0 0.0 3.92505e-13 6.26692e-12 2.57937e-13 103.116 44.1347 -39.5276 -28.4162 -36.4032 77.7185 -0.537124 -20.3955 -2.99467 -1.75681e-09 1.01482e-09 -2.03558e-09 -2.99488e-09 1.75248e-09 -3.55398e-09 -1.75681e-09 1.01482e-09 -2.03559e-09 7.73091 5.47488 0.417314 -1.75681e-09 1.01482e-09 -2.03559e-09 2.90554 0.965183 0.102902 -1.7568e-09 1.01482e-09 -2.03559e-09 10.2786 0.731801 0.0259123 -1.75681e-09 1.01482e-09 -2.03558e-09 2.22167 -0.733487 -0.20892 3.92205e-13 6.26693e-12 2.57683e-13 -63.0924 55.9211 -4.8896 28.41 -34.5704 -74.6474 0.356254 -16.7312 2.42116 -7.3394e-10 -3.54428e-09 2.87103e-09 -1.29266e-09 -6.12589e-09 4.94593e-09 -7.33945e-10 -3.54429e-09 2.87104e-09 -7.73091 5.47488 -0.417314 -7.33938e-10 -3.54428e-09 2.87103e-09 -2.90554 0.965183 -0.102902 -7.33944e-10 -3.54428e-09 2.87104e-09 -10.2786 0.731801 -0.0259123 -7.33937e-10 -3.54428e-09 2.87104e-09 -2.22167 -0.733487 0.20892 -2.03217e-16 0.0 -3.88251e-19 -24.2729 -20.4465 -9.10276 8.81366 57.4096 31.13 176.939 -1.45236 -145.673 2.03217e-16 0.0 3.88251e-19 -21.1316 -17.5119 -0.723748 0.451731 48.2697 -1.02004 1.08865 -24.7852 1.37563
97.6176 76.4872 -17.6733 -66.5892 101.933 -68.3896 -21.6213 19.9622 0.109043 2.91651 -4.67636 -0.923073 -0.686581 -13.9842 -0.668617 6.10715 -8.48919 -0.411273 -0.0 0.0 0.0 -0.0 0.0 0.0 4.35097e-13 7.36455e-12 2.88934e-13 104.386 43.1797 -41.8696 -28.4271 -36.249 77.4271 -0.577745 -21.0766 -3.10491 -2.28169e-09 1.02088e-09 -3.50814e-09 -3.87831e-09 1.75874e-09 -6.10822e-09 -2.28169e-09 1.02088e-09 -3.50815e-09 7.73091 5.47488 0.417314 -2.28169e-09 1.02088e-09 -3.50816e-09 2.90554 0.965183 0.102902 -2.28168e-09 1.02088e-09 -3.50815e-09 10.2786 0.731801 0.0259123 -2.28169e-09 1.02088e-09 -3.50815e-09 2.22167 -0.733487 -0.20892 4.34763e-13 7.36456e-12 2.88735e-13 -60.9934 55.1379 -8.65409 28.4249 -34.9702 -75.2958 0.300962 -15.424 2.22218 -6.02423e-10 -4.54223e-09 4.7457e-09 -1.09117e-09 -7.85759e-09 8.18627e-09 -6.02428e-10 -4.54223e-09 4.74571e-09 -7.73091 5.47488 -0.417314 -6.0242e-10 -4.54223e-09 4.7457e-09 -2.90554 0.965183 -0.102902 -6.02427e-10 -4.54223e-09 4.7457e-09 -10.2786 0.731801 -0.0259123 -6.02421e-10 -4.54223e-09 4.7457e-09 -2.22167 -0.733487 0.20892 -2.03217e-16 0.0 -3.88251e-19 -24.3141 -23.4377 -9.58518 5.44273 59.3446 25.2191 179.246 -1.79958 -153.439 2.03217e-16 0.0 3.88251e-19 -20.9736 -15.0494 -0.482878 0.393498 47.4371 -1.16157 1.07326 -25.9247 1.12858
100.224 76.7076 -17.7351 -65.6102 102.029 -66.9552 -21.5791 19.6024 -0.693916 3.26788 -4.78084 -1.10296 -0.498552 -13.8167 -0.490546 5.83901 -8.34802 -0.185652 -0.0 0.0 0.0 -0.0 0.0 0.0 3.25924e-13 6.16212e-12 2.1732e-13 105.579 42.248 -44.1846 -28.427 -36.1325 77.2435 -0.598881 -21.4194 -3.16081 -2.05144e-09 8.83363e-10 -3.34099e-09 -3.48394e-09 1.52084e-09 -5.81454e-09 -2.05144e-09 8.83362e-10 -3.34101e-09 7.73091 5.47488 0.417314 -2.05144e-09 8.83364e-10 -3.341e-09 2.90554 0.965183 0.102902 -2.05144e-09 8.83366e-10 -3.341e-09 10.2786 0.731801 0.0259123 -2.05145e-09 8.83369e-10 -3.34099e-09 2.22167 -0.733487 -0.20892 3.25644e-13 6.16212e-12 2.17159e-13 -59.5678 54.3539 -11.7021 28.4343 -35.4015 -75.9985 0.238897 -13.9124 1.99409 -5.07041e-10 -4.20973e-09 4.84737e-09 -9.28196e-10 -7.28489e-09 8.36475e-09 -5.07045e-10 -4.20973e-09 4.84738e-09 -7.73091 5.47488 -0.417314 -5.07037e-10 -4.20973e-09 4.84737e-09 -2.90554 0.965183 -0.102902 -5.07046e-10 -4.20973e-09 4.84738e-09 -10.2786 0.731801 -0.0259123 -5.07039e-10 -4.20973e-09 4.84737e-09 -2.22167 -0.733487 0.20892 -2.03217e-16 0.0 -3.88251e-19 -24.1818 -26.444 -10.3244 -7.54286 63.6617 13.7197 -175.914 -5.0576 -175.558 2.03217e-16 0.0 3.88251e-19 -20.6105 -12.5388 -0.577399 0.329089 46.1019 -1.28537 1.00579 -26.6538 0.80111
102.856 77.0084 -17.7961 -62.2523 102.101 -63.232 -21.2841 19.0526 -1.64278 3.6014 -4.88884 -1.31169 -0.204414 -13.6201 -0.267433 5.34276 -8.11508 0.0496015 -0.0 0.0 0.0 -0.0 0.0 0.0 1.18946e-13 3.52008e-12 7.96412e-14 106.748 41.3074 -46.5268 -28.4275 -36.1049 77.1967 -0.608543 -21.5792 -3.18685 -1.35264e-09 6.51285e-10 -2.20634e-09 -2.29601e-09 1.12177e-09 -3.83996e-09 -1.35263e-09 6.51281e-10 -2.20637e-09 7.73091 5.47488 0.417314 -1.35264e-09 6.51282e-10 -2.20635e-09 2.90554 0.965183 0.102902 -1.35264e-09 6.51283e-10 -2.20634e-09 10.2786 0.731801 0.0259123 -1.35265e-09 6.51286e-10 -2.20633e-09 2.22167 -0.733487 -0.20892 1.18777e-13 3.52008e-12 7.95139e-14 -58.7023 53.5808 -14.162 28.4321 -35.8784 -76.8044 0.17766 -12.1692 1.73521 -4.23449e-10 -3.06104e-09 3.91366e-09 -7.71782e-10 -5.29887e-09 6.75539e-09 -4.23453e-10 -3.06104e-09 3.91367e-09 -7.73091 5.47488 -0.417314 -4.23446e-10 -3.06103e-09 3.91366e-09 -2.90554 0.965183 -0.102902 -4.23455e-10 -3.06104e-09 3.91366e-09 -10.2786 0.731801 -0.0259123 -4.23448e-10 -3.06103e-09 3.91366e-09 -2.22167 -0.733487 0.20892 -2.03217e-16 0.0 -3.88251e-19 -23.9199 -29.4753 -11.2503 -19.2127 68.4752 -7.72875 -173.083 -8.7733 153.354 2.03217e-16 0.0 3.88251e-19 -20.0087 -9.98243 -0.851212 0.254079 44.3543 -1.38786 0.896991 -27.0488 0.407536
105.423 77.3324 -17.6976 -58.8165 101.811 -59.3216 -21.0207 18.4321 -2.61729 3.93126 -4.98265 -1.53493 0.129511 -13.404 -0.0118911 4.77343 -7.82104 0.322175 -0.0 0.0 0.0 -0.0 0.0 0.0 -1.04333e-13 8.55e-13 -5.85114e-14 107.872 40.4123 -48.8643 -28.4284 -36.1302 77.2325 -0.61549 -21.7033 -3.20688 -5.36487e-10 3.78203e-10 -8.28347e-10 -9.09561e-10 6.52452e-10 -1.44245e-09 -5.36474e-10 3.78198e-10 -8.28382e-10 7.73091 5.47488 0.417314 -5.36484e-10 3.78197e-10 -8.28347e-10 2.90554 0.965183 0.102902 -5.36485e-10 3.78196e-10 -8.28339e-10 10.2786 0.731801 0.0259123 -5.36497e-10 3.78199e-10 -8.28324e-10 2.22167 -0.733487 -0.20892 -1.04388e-13 8.54992e-13 -5.86159e-14 -58.25 52.8933 -16.089 28.4207 -36.398 -77.6889 0.134856 -10.6067 1.50708 -3.44495e-10 -1.62565e-09 2.55185e-09 -6.18482e-10 -2.81625e-09 4.40646e-09 -3.44498e-10 -1.62565e-09 2.55187e-09 -7.73091 5.47488 -0.417314 -3.44491e-10 -1.62564e-09 2.55186e-09 -2.90554 0.965183 -0.102902 -3.44501e-10 -1.62565e-09 2.55186e-09 -10.2786 0.731801 -0.0259123 -3.44494e-10 -1.62564e-09 2.55185e-09 -2.22167 -0.733487 0.20892 -2.03217e-16 0.0 -3.88251e-19 -23.7788 -32.2683 -12.2035 -21.7774 70.1485 -34.085 -173.104 -7.8472 124.232 2.03217e-16 0.0 3.88251e-19 -19.4276 -7.38719 -1.16551 0.172208 42.4147 -1.46574 0.789238 -27.0232 0.0305137
